<?xml version="1.0" standalone="no"?>
<!DOCTYPE svg PUBLIC "-//W3C//DTD SVG 20010904//EN"
 "http://www.w3.org/TR/2001/REC-SVG-20010904/DTD/svg10.dtd">
<svg version="1.0" xmlns="http://www.w3.org/2000/svg"
 width="250.000000pt" height="250.000000pt" viewBox="0 0 250.000000 250.000000"
 preserveAspectRatio="xMidYMid meet">
<metadata>
Created by potrace 1.11, written by Peter Selinger 2001-2013
</metadata>
<g transform="translate(0.000000,250.000000) scale(0.100000,-0.100000)"
fill="#000000" stroke="none">
<path d="M1051 2468 c-54 -139 -71 -184 -71 -193 0 -6 -6 -19 -13 -29 -13 -17
-16 -16 -64 18 -28 20 -53 36 -57 36 -4 0 -16 9 -27 19 -27 25 -106 67 -113
60 -3 -3 -9 -68 -12 -145 -4 -76 -8 -140 -9 -142 -2 -2 -61 13 -131 32 -70 20
-134 36 -142 36 -16 0 -11 -43 14 -121 8 -25 17 -56 19 -69 2 -13 9 -38 16
-57 6 -19 9 -36 7 -38 -2 -3 -158 -11 -265 -14 -13 -1 -23 -7 -23 -16 0 -8 34
-65 75 -126 42 -62 72 -115 68 -119 -4 -4 -46 -21 -93 -38 -129 -46 -160 -61
-160 -76 0 -12 66 -70 178 -155 18 -13 32 -27 32 -31 0 -3 -48 -43 -106 -89
-69 -55 -104 -88 -102 -99 2 -11 44 -32 125 -62 67 -25 124 -48 128 -51 3 -4
-28 -57 -69 -118 -42 -60 -76 -115 -76 -120 0 -19 22 -23 153 -28 73 -3 134
-7 135 -8 2 -2 -13 -62 -34 -134 -28 -98 -35 -134 -26 -143 8 -8 34 -4 104 15
115 32 165 40 173 27 3 -6 0 -10 -7 -10 -9 0 -10 -2 -1 -8 10 -6 18 -96 22
-229 1 -14 7 -23 16 -23 13 0 89 43 105 60 11 11 70 50 76 50 3 0 17 9 32 20
14 11 28 17 32 13 4 -4 26 -63 51 -129 26 -73 51 -127 62 -134 12 -7 17 -8 12
-1 -3 6 1 14 9 17 9 3 13 10 10 15 -3 5 1 9 9 9 8 0 17 9 20 21 4 13 10 18 18
13 7 -4 10 -3 6 3 -7 12 30 59 44 56 4 -2 6 3 4 10 -2 6 9 28 25 47 l30 34 23
-28 c12 -16 41 -53 65 -82 24 -30 40 -54 36 -54 -4 0 11 -14 32 -31 21 -17 40
-26 42 -20 2 5 9 8 17 5 7 -3 16 -1 20 5 4 7 0 8 -11 4 -14 -5 -16 -3 -10 13
5 10 11 27 13 36 3 10 10 15 16 11 6 -3 7 -1 3 5 -3 6 3 39 15 74 40 116 35
109 63 96 14 -6 23 -16 19 -22 -3 -6 -3 -8 1 -4 10 9 112 -61 108 -74 -1 -5 2
-7 8 -3 13 8 82 -39 73 -51 -4 -5 0 -2 10 7 15 13 19 39 24 155 3 76 6 140 8
142 1 2 45 -9 96 -23 170 -48 189 -52 189 -34 0 8 -10 48 -21 89 -30 109 -48
184 -46 186 2 2 201 12 260 13 16 1 27 7 27 15 0 8 -34 65 -75 127 -56 83 -72
114 -63 121 12 7 88 37 193 75 27 10 51 26 53 35 2 9 -23 36 -65 69 -37 29
-70 56 -73 59 -3 3 -20 16 -37 29 -18 12 -33 25 -33 29 0 4 48 45 106 91 68
54 104 89 102 100 -2 10 -46 32 -128 62 -72 27 -124 52 -122 58 1 7 34 60 72
118 39 59 70 113 70 120 0 7 -10 13 -22 14 -115 3 -264 11 -266 14 -2 2 13 62
34 135 26 94 34 134 26 142 -7 7 -48 0 -142 -27 -72 -20 -133 -35 -135 -33 -3
2 -11 160 -14 266 -1 13 -7 22 -17 22 -15 0 -192 -115 -205 -133 -4 -5 -12 -1
-18 9 -10 18 -10 18 -11 -1 0 -31 -15 -6 -54 95 -55 141 -54 140 -70 140 -8 0
-33 -24 -56 -52 -22 -29 -55 -71 -73 -92 -18 -21 -36 -45 -40 -52 -4 -8 -11
-14 -16 -14 -4 0 -44 47 -90 105 -45 58 -89 105 -97 105 -8 0 -18 -10 -23 -22z"/>
<path d="M1233 255 c0 -8 4 -12 9 -9 5 3 6 10 3 15 -9 13 -12 11 -12 -6z"/>
<path d="M1775 160 c-3 -5 -1 -10 4 -10 6 0 11 5 11 10 0 6 -2 10 -4 10 -3 0
-8 -4 -11 -10z"/>
<path d="M1015 120 c3 -5 8 -10 11 -10 2 0 4 5 4 10 0 6 -5 10 -11 10 -5 0 -7
-4 -4 -10z"/>
<path d="M1195 120 c3 -5 8 -10 11 -10 2 0 4 5 4 10 0 6 -5 10 -11 10 -5 0 -7
-4 -4 -10z"/>
<path d="M1335 120 c3 -5 8 -10 11 -10 2 0 4 5 4 10 0 6 -5 10 -11 10 -5 0 -7
-4 -4 -10z"/>
<path d="M1710 126 c0 -2 7 -7 16 -10 8 -3 12 -2 9 4 -6 10 -25 14 -25 6z"/>
</g>
</svg>
