<svg xmlns="http://www.w3.org/2000/svg"
     height="512"
     width="644"
     viewBox="0 0 644 512">
  <path d="m525 376c3.57-0.687 6.95-1.82 10.3-2.97 18.5 15.3 28.6 9.59 24.4-13.8 2.66-2.28 5.15-4.75 7.43-7.4 23.9 4.2 29.6-5.75 14-24 1.18-3.34 2.34-6.64 3.01-10.2 22.4-8.13 22.4-19.4-0.0495-27.6-0.646-3.52-1.79-6.85-2.96-10.2 15.5-18.2 9.73-28.2-14-24.1-2.34-2.6-4.82-5.07-7.45-7.36 4.21-23.5-5.86-29.2-24.4-13.8-3.38-1.14-6.71-2.27-10.3-2.93-8.25-22.2-19.8-22.2-28 0-3.54 0.66-6.95 1.78-10.3 2.93-18.5-15.3-28.6-9.6-24.3 13.8-2.69 2.33-5.19 4.75-7.5 7.38-23.8-4.17-29.6 5.77-14 24-1.15 3.36-2.31 6.67-2.96 10.2-22.4 8.13-22.4 19.5 0 27.6 0.673 3.52 1.81 6.85 2.96 10.2-15.5 18.2-9.72 28.2 14 24 2.34 2.65 4.82 5.07 7.45 7.35-4.21 23.5 5.86 29.3 24.4 13.8 3.38 1.14 6.76 2.29 10.3 2.97 8.2 22.1 19.8 22.1 27.9 0.004zm8.41 7.99c-0.369 0.138-0.715 0.252-1.08 0.345-4.58 10.1-10.4 15.7-17.4 17.3l29.1 110 11-38.1 27.1 28.1-30.1-111c-5.79 0.0711-12.4-2.05-19.6-7.15zm-43.6 0.345c-0.372-0.0899-0.696-0.206-1.08-0.345-8.41 5.98-16.1 7.81-22.4 6.63l-27.2 100 26.4-17.6 11.7 27.8 27.2-99.9c-5.64-2.43-10.5-7.89-14.4-16.5zm-34-162c7.27-8.51 19.8-9.03 33.5 0.319 11.5-23.8 33.3-23.8 44.8-0.0223 13.6-9.35 26.2-8.83 33.5-0.296 4.42 5.18 6.18 12.5 5.4 22.5 0.879-0.0864 1.41 0.138 2.25 0.0898v-245h-127v245c0.833 0 1.34-0.206 2.27-0.138-0.886-9.85 0.92-17.2 5.32-22.4zm131-196v31.6c16.4 6.99 27.7 23 27.7 41.6v278c0 23.4-18.2 42.4-41.1 44.9l7.99 29.5c35-8 63-39 63-76v-278c0-35.1-25-64.8-58-72.9zm-509 394c-25.4 0-46-20.3-46-45.3v-278c0-25 20.7-45.3 46-45.3h358v-30.3h-358c-42.2 0.9-76.6 34.8-76.6 76.4v277c0 41.7 34.4 75.6 76.6 75.6h360l8.2-30.3h-368v0.0487zm358-252h-157c-6.82 0-12.3 5.42-12.3 12.2 0 6.72 5.48 12.2 12.3 12.2h157v-24.4zm-170 69c0 6.76 5.48 12.2 12.3 12.2h149c1.95-1.37 4.23-2.61 7.36-3.47v-20.8h-157c-6.82 0-12.3 5.44-12.3 12.1zm-190 78c0 31.1 192 31.1 192 0 0-26.3-30.7-61.7-72.1-72.1 17.4-11.4 29.3-34.1 29.3-54.5 0-28.8-23.7-52.1-52.9-52.1s-52.9 23.4-52.9 52.1c0 20.3 11.9 43.1 29.2 54.5-41.3 10.3-72 45.8-72 72.1zm91.5-56.9h-0.232l-8.76-9.92c4.26 1.48 8.63 2.45 13.2 2.45 4.62 0 8.99-0.911 13.2-2.4l-8.77 9.88h-0.221l22.6 53.8-26.9 26.4-26.9-26.4 22.6-53.8z"/>
</svg>
