<svg xmlns="http://www.w3.org/2000/svg"
     height="512"
     width="512"
     viewBox="0 0 512 512">
  <path d="m163.14 168.29q-2.8572-7.1428-9.7143-10-6.8571-2.8571-14 0-30.857 12.571-54.571 36.286-23.714 23.714-36.286 54.572-2.8571 7.1428 0 14 2.8571 6.8571 10 9.7142 3.7143 1.4286 6.8571 1.4286 12 0 17.143-11.429 9.7143-24 28.143-42.428 18.429-18.429 42.429-28.143 7.1428-3.1428 10-10 2.8571-6.8571 0-14zm269.14-101.71 13.143 13.143-69.714 69.429 19.429 19.428q5.4286 5.4286 5.4286 13 0 7.5715-5.4286 13l-18.286 18.286q25.429 46 25.429 98 0 40.857-15.857 78.143t-42.857 64.286-64.286 42.857q-37.28 15.84-78.14 15.84-40.85 0-78.14-15.86-37.286-15.85-64.286-42.85t-42.857-64.286q-15.857-37.29-15.857-78.14 0-40.86 15.857-78.15 15.857-37.286 42.857-64.286t64.286-42.857 78.143-15.857q52 0 98 25.429l18.286-18.286q5.4286-5.4285 13-5.4285t13 5.4285l19.429 19.429zm2.2857-16q-2.8571 2.8572-6.2857 2.8572-3.7143 0-6.5714-2.8572l-26-25.714q-2.57-2.866-2.57-6.58 0-3.7143 2.5714-6.5714 2.8571-2.5714 6.5714-2.5714t6.5714 2.5714l25.714 26q2.8571 2.5714 2.8571 6.4286 0 3.8571-2.8571 6.4285zm65.714 65.714q-3.1428 2.5714-6.5714 2.5714t-6.5714-2.5714l-25.714-26q-2.8571-2.5714-2.8571-6.4286 0-3.8571 2.8571-6.4285 2.5714-2.8572 6.4286-2.8572t6.4286 2.8572l26 25.714q2.5714 2.8571 2.5714 6.5714t-2.5714 6.5714zm11.72-52.29q0 4-2.5714 6.5714-2.5714 2.5715-6.5714 2.5715h-27.429q-4 0-6.5714-2.5715-2.57-2.572-2.57-6.572t2.5714-6.5714q2.5714-2.5715 6.5714-2.5715h27.429q4 0 6.5714 2.5715 2.57 2.572 2.57 6.572zm-54.857-54.857v27.428q0 4-2.5714 6.5715-2.57 2.572-6.57 2.572t-6.5714-2.5714q-2.5714-2.5715-2.5714-6.5715v-27.428q0-4 2.5714-6.5715 2.57-2.5715 6.57-2.5715t6.5714 2.5714q2.5714 2.5715 2.5714 6.5715zm43.143 15.714-26 25.714q-2.8571 2.8572-6.2857 2.8572-3.7143 0-6.5714-2.8572-2.8571-2.5714-2.8571-6.4285 0-3.8572 2.8571-6.4286l25.714-26q2.87-2.5711 6.58-2.5711 3.7143 0 6.5714 2.5714 2.5714 2.8571 2.5714 6.5714t-2.5714 6.5714z"/>
</svg>
