<svg xmlns="http://www.w3.org/2000/svg"
     height="512"
     width="512"
     viewBox="0 0 512 512">
  <path d="m298.67 138.67v149.33q0 4.6667-3 7.6667t-7.6667 3h-106.67q-4.6667 0-7.6667-3t-3-7.6667v-21.333q0-4.6667 3-7.6667t7.6667-3h74.67v-117.33q0-4.67 3-7.67t7.6667-3h21.33q4.6667 0 7.6667 3t3 7.6667zm138.66 117.33q0-49.333-24.333-91t-66-66-91-24.333-91 24.333-66 66-24.333 91 24.333 91 66 66 91 24.333 91-24.333 66-66 24.333-91zm74.67 0q0 69.667-34.333 128.5-34.34 58.83-93.17 93.17-58.83 34.33-128.5 34.33t-128.5-34.33q-58.833-34.34-93.167-93.17-34.333-58.83-34.333-128.5t34.333-128.5q34.334-58.833 93.167-93.167 58.83-34.333 128.5-34.333t128.5 34.333q58.83 34.334 93.17 93.167 34.33 58.83 34.33 128.5z"/>
</svg>
