<svg xmlns="http://www.w3.org/2000/svg"
     height="512"
     width="622"
     viewBox="0 0 622 512">
  <path d="m183 466 110-54.9v-89.7l-110 46.9v97.7zm-18-129 115-50-115-49-116 49zm311 130 110-54.9v-89.7l-110 46.9v97.7zm-19-130 116-50-116-49-115 49zm-128-83.7 110-47.1v-76l-110 46.9v76.3zm-18-108l126-54-126-54-126 54zm311 148v119q0 10.3-5.43 19.1-5.43 8.86-14.9 13.4l-128 64q-7.15 4-16.3 4t-16.3-4l-128-64q-1-1-2-1t-2 1l-128 64q-7.15 4-16.3 4t-16.3-4l-128-64q-9.1-5-14.6-13-5.4-9-5.4-20v-118q0-10.9 6.15-20 6.15-9.14 16.2-13.7l124-53.1v-114q0-10.9 6.15-20 6.15-9.14 16.2-13.7l129-55.4q6-2.9 14-2.9 7.72 0 14.3 2.86l128 54.8q10 4.57 16.2 13.7 6.15 9.14 6.15 20v114l124 53.1q10.3 4.57 16.3 13.7 6 9.14 6 20z"/>
</svg>
