<svg xmlns="http://www.w3.org/2000/svg"
     height="512"
     width="512"
     viewBox="0 0 512 512">
  <path d="m456 109q7.98 8 13.7 21.7 5 13 5 24v329q0 12-8 20-7.98 8-19.4 8h-383q-12 0-20-8t-8-19v-458q0-11 8-19t19.4-8h256q11.4 0 25.1 5.71t21.7 13.7zm-127-70.1v107h107q-3-8-6-11l-89-89.9q-4-3.4-12-6.2zm110 437v-293h-119q-11.4 0-19.4-8-7.98-8-7.98-19.4v-119h-219v439h365zm-147-170q9.41 7.43 24 16 16.8-2 33.4-2 41.9 0 50.5 14 4.56 6.29 0.57 14.9 0 0.286-0.285 0.572h-2v0.286q-1.71 10.9-20.2 10.9-13.7 0-32.8-5.71t-37.1-15.1q-63 6.86-112 23.7-43.6 74.9-69 74.9-4.28 0-7.98-2l-6.84-3.43q-0.285-0.286-1.71-1.43-2.85-2.86-1.71-10.3 2.57-11.4 16-26.1t37.6-27.6q3.99-2.57 6.56 1.71 0.57 0.571 0.57 1.14 14.8-24.3 30.5-56.3 19.4-38.9 29.7-74.9-6.84-23.4-8.7-45.6-1.85-22.1 1.85-36.4 3.14-11.4 12-11.4h6.27q6.56 0 9.98 4.29 5.13 6 2.57 19.4-0.57 1.71-1.14 2.29 0.285 0.857 0.285 2.29v8.57q-0.57 35.1-3.99 54.9 15.7 46.9 41.6 68zm-164 117q14.8-6.86 39.1-45.1-14.5 11.4-25 24-10.4 12.6-14.1 21.1zm113-262q-4.28 12-0.57 37.7 0.285-2 2-12.6 0-0.857 2-12.3 0.285-1.14 1.14-2.29-0.285-0.286-0.285-0.572t-0.143-0.428q-0.143-0.143-0.143-0.429-0.285-6.29-3.71-10.3 0 0.286-0.285 0.571v0.571zm-35 188q38-15 81-23-0.57-0.286-3.71-2.71-3.14-2.43-4.56-3.86-21.7-19.1-36.2-50.3-7.7 24.6-23.7 56.3-8.55 16-12.8 23.7zm184-4.57q-7-6-40-6 21.7 8 35.4 8 3.99 0 5.13-0.286 0-0.286-0.57-0.857z"/>
</svg>
