<svg xmlns="http://www.w3.org/2000/svg"
     height="512"
     width="512"
     viewBox="0 0 512 512">
  <path d="m456 109q7.98 8 13.7 21.7 5 13 5 24v329q0 12-8 20-7.98 8-19.4 8h-383q-12 0-20-8t-8-19v-458q0-11 8-19t19.4-8h256q11.4 0 25.1 5.71t21.7 13.7zm-127-70.1v107h107q-3-8-6-11l-89-89.9q-4-3.4-12-6.2zm110 437v-293h-119q-11.4 0-19.4-8-7.98-8-7.98-19.4v-119h-219v439h365zm-335-256v30.6h20l46.8 189h45.3l36.5-139q2-5.71 2.85-13.1 0.57-4.57 0.57-6.86h1.14l0.855 6.86q0.285 0.857 0.998 5.71 0.713 4.86 1.57 7.43l36.5 139h45.3l47-190h20v-30.6h-85.5v30.6h25.7l-28.2 125q-1.43 5.71-2 13.1l-0.57 6h-1.14l-0.855-6q-0.285-1.43-1.14-6t-1.43-7.14l-41.1-156h-32.5l-41.1 156q-0.57 2.57-1.28 7-0.713 4.43-0.998 6.14l-1.14 6h-1.14l-0.57-6q-0.57-7.43-2-13.1l-28-125h25.7v-30.6h-85.5z"/>
</svg>
