<svg xmlns="http://www.w3.org/2000/svg"
     height="512"
     width="512"
     viewBox="0 0 512 512">
  <path d="m512 442.49q0 15.676-10.944 26.62l-31.65 31.95q-11.54 10.94-26.92 10.94-15.68 0-26.62-10.94l-107.37-107.67q-11.24-10.648-11.24-26.62 0-15.676 12.719-28.395l-75.72-75.72-37.269 37.269q-4.141 4.141-10.057 4.141-5.9157 0-10.057-4.141 0.59156 0.5916 3.6973 3.5494 3.1057 2.9579 3.6973 3.8452 0.59157 0.8874 2.9578 3.4015 2.3663 2.5142 2.9578 3.9931 0.59157 1.4789 1.7747 3.9931 1.1831 2.5141 1.6268 4.8804 0.44368 2.3662 0.44368 5.3241 0 11.24-8.2819 20.113-0.88735 0.8873-4.8804 5.3241-3.9931 4.4367-5.6199 6.0635t-5.472 4.8804-6.5072 4.5847q-2.662 1.331-6.5072 2.662t-7.6904 1.331q-11.831 0-20.113-8.2819l-120.68-120.68q-8.28-8.28-8.28-20.12 0-3.8452 1.331-7.6903 1.331-3.8452 2.662-6.5073 1.331-2.662 4.5846-6.5072t4.8804-5.472 6.0635-5.6198q4.4367-3.9931 5.3241-4.8804 8.8735-8.282 20.113-8.282 2.9578 0 5.3241 0.4437t4.8804 1.6268q2.5142 1.1831 3.9931 1.7747t3.9931 2.9578q2.5142 2.3663 3.4015 2.9579 0.88734 0.5915 3.8452 3.6972 2.9578 3.1058 3.5494 3.6973-4.141-4.1409-4.141-10.057 0-5.9156 4.141-10.057l102.94-102.92q4.141-4.141 10.057-4.141 5.9157 0 10.057 4.141-0.59156-0.5916-3.6973-3.5494t-3.6973-3.8452q-0.59156-0.8873-2.9578-3.4015-2.3663-2.5141-2.9578-3.993-0.59157-1.479-1.7747-3.9931-1.1831-2.5142-1.6268-4.8804-0.44368-2.3663-0.44368-5.3241 0-11.24 8.2819-20.113 0.88735-0.8874 4.8804-5.3241 3.9931-4.4368 5.6199-6.0636t5.472-4.8804 6.5072-4.5846q2.66-1.336 6.5-2.667 3.85-1.331 7.69-1.331 11.831 0 20.113 8.2819l120.68 120.68q8.2819 8.2819 8.2819 20.113 0 3.8452-1.331 7.6904t-2.662 6.5072-4.5846 6.5072-4.8804 5.472-6.0635 5.6199q-4.4368 3.993-5.3241 4.8804-8.8735 8.2819-20.113 8.2819-2.9578 0-5.3241-0.4437-2.3663-0.4436-4.8804-1.6268-2.5142-1.1831-3.9931-1.7747-1.4789-0.5915-3.9931-2.9578t-3.4015-2.9578q-0.88735-0.5916-3.8452-3.6973t-3.5494-3.6973q4.141 4.141 4.141 10.057 0 5.9157-4.141 10.057l-37.269 37.269 75.72 75.72q12.719-12.719 28.395-12.719 15.381 0 26.916 10.944l107.38 107.37q10.94 11.54 10.94 26.92z"/>
</svg>
