<svg xmlns="http://www.w3.org/2000/svg"
     height="512"
     width="512"
     viewBox="0 0 512 512">
  <path d="m256 0q69.67 0 128.5 34.333 58.83 34.334 93.17 93.167 34.33 58.83 34.33 128.5t-34.33 128.5q-34.34 58.83-93.17 93.17-58.83 34.33-128.5 34.33t-128.5-34.33q-58.833-34.34-93.167-93.17-34.333-58.83-34.333-128.5t34.333-128.5q34.334-58.833 93.167-93.167 58.83-34.333 128.5-34.333zm91.333 173.67q-0.66666 0.3333-3.1667 3.1666-2.5 2.8334-4.5 3.1667 0.66666 0 1.5-1.6667 0.83333-1.6666 1.6667-3.6666 0.83334-2 1.1667-2.3334 2-2.3333 7.3333-5 4.6667-2 17.333-4 11.333-2.6666 17 3.6667-0.66667-0.6667 3.1667-4.3333 3.8333-3.6667 4.8333-4 1-0.6667 5-1.5 4-0.8334 5-2.5l0.66666-7.3334q-4 0.3334-5.8333-2.3333t-2.1667-7q0 0.6667-2 2.6667 0-2.3334-1.5-2.6667t-3.8333 0.3333q-2.3333 0.6667-3 0.3334-3.3333-1-5-2.5t-2.6667-5.5-1.3333-5q-0.66667-1.6667-3.1667-3.5-2.5-1.8334-3.1667-3.5-0.33334-0.6667-0.83334-1.8334-0.5-1.1666-1-2.1666t-1.3333-1.8334q-0.83-0.84-1.83-0.84t-2.3333 1.6667q-1.3333 1.6666-2.5 3.3333t-1.5 1.6667q-1-0.6667-2-0.5-1 0.1666-1.5 0.3333t-1.5 1-1.6667 1.1667q-1 0.6666-2.8333 1-1.84 0.33-2.84 0.66 5-1.6666-0.33333-3.6666-3.3333-1.3334-5.3333-1 3-1.3334 2.5-4-0.5-2.66-2.83-4.66h1.6667q-0.33334-1.3333-2.8333-2.8333t-5.8333-2.8334q-3.3333-1.3333-4.3333-2-2.67-1.663-11.34-3.163-8.6667-1.5-11-0.1667-1.6667 2-1.5 3.5 0.16667 1.5 1.3333 4.6667 1.1667 3.1666 1.1667 4.1666 0.33334 2-1.8333 4.3334-2.1667 2.3333-2.1667 4 0 2.3333 4.6667 5.1666 4.6667 2.8334 3.3333 7.1667-1 2.6667-5.3333 5.3333-4.3333 2.6667-5.3333 4-1.6667 2.6667-0.5 6.1667t3.5 5.5q0.66666 0.6667 0.5 1.3333-0.16 0.67-1.16 1.5-1 0.8334-1.8333 1.3334-0.83334 0.5-2.1667 1.1666l-1 0.67q-3.6667 1.6667-6.8333-2-3.1667-3.6667-4.5-8.6667-2.3333-8.3333-5.3333-10-7.6667-2.6666-9.6667 0.3334-1.67-4.34-13.67-8.67-8.3333-3-19.333-1.3333 2-0.3334 0-5-2.3333-5-6.3333-4 1-2 1.3333-5.8334 0.33-3.83 0.33-4.5 1-4.3333 4-7.6666 0.33333-0.3334 2.3333-2.8334t3.1667-4.5 0.16667-2q11.667 1.3334 16.667-3.6666 1.67-1.663 3.84-5.663 2.1667-4 3.5-5.6667 3-2 4.6667-1.8333 1.66 0.167 4.83 1.833 3.16 1.667 4.83 1.667 4.6667 0.3333 5.1667-3.6667t-2.5-6.6666q4 0.3333 1-5.6667-1.67-2.333-2.67-3-4-1.3333-9 1.6667-2.6667 1.3333 0.66667 2.6666-0.33334-0.3333-3.1667 3.5-2.8333 3.8334-5.5 5.8334t-5.3333-1.6667q-0.33334-0.3333-1.8333-4.5t-3.1667-4.5q-2.6667 0-5.3333 5 1-2.6667-3.6667-5t-8-2.6667q6.3333-4-2.6667-9-2.3333-1.3333-6.8333-1.6666-4.5-0.3334-6.5 1.3333-1.6667 2.3333-1.8333 3.8333-0.16666 1.5 1.6667 2.6667 1.8333 1.1667 3.5 1.8333 1.6667 0.6667 3.8333 1.3334 2.1667 0.6666 2.8333 1 4.6667 3.3333 2.6667 4.6666-0.66666 0.3334-2.8333 1.1667-2.1667 0.8333-3.8333 1.5-1.6667 0.6667-2 1.3333-1 1.3334 0 4.6667t-0.66667 4.6667q-1.6667-1.6667-3-5.8334-1.3333-4.1666-2.3333-5.5 2.3333 3-8.3333 2l-3.34-0.335q-1.3333 0-5.3333 0.6667-4 0.6666-6.8333 0.3333t-4.5-2.6667q-1.3333-2.6666 0-6.6666 0.34-1.334 1.34-0.667-1.34-1-3.67-3.167-2.33-2.166-3.33-2.833-15.333 5-31.333 13.667 2 0.3333 4-0.3334 1.66-0.667 4.33-2.167 2.66-1.5 3.33-1.834 11.33-4.666 14-2.333l1.6667-1.6667q4.6667 5.3334 6.6667 8.3334-2.3333-1.3334-10-0.3334-6.6667 2-7.3333 4 2.3333 4 1.6667 6-1.3333-1-3.8333-3.3333t-4.8333-3.6667q-2.3333-1.3333-5-1.6666-5.3333 0-7.3333 0.3333-48.67 26.667-78.337 74 2.3333 2.3333 4 2.6667 1.3333 0.3333 1.6667 3 0.33333 2.6666 0.83333 3.6666t3.8333-1q3 2.6667 1 6.3334 0.33333-0.3334 14.667 9 6.3333 5.6666 7 7 1 3.6666-3.3333 6-0.33333-0.6667-3-3-2.6667-2.3334-3-1.3334-1 1.6667 0.16667 6.1667t3.5 4.1667q-2.3333 0-3.1667 5.3333-0.83333 5.3333-0.83333 11.833 0 6.5-0.33334 7.8334l0.666 0.33q-1 4 1.8333 11.5t7.1667 6.5q-4.3333 1 6.6667 14.333 2 2.6667 2.6667 3 1 0.6667 4 2.5 3 1.8334 5 3.3334t3.3333 3.5q1.3333 1.6666 3.3333 7.5 2 5.8333 4.6667 7.8333-0.66667 2 3.1667 6.6667 3.8333 4.6666 3.5 7.6666-0.33333 0-0.83333 0.3334-0.5 0.33-0.83 0.33 1 2.3333 5.1667 4.6667 4.16 2.33 5.16 4.33 0.33333 1 0.66667 3.3333 0.33333 2.3334 1 3.6667 0.66666 1.3333 2.6667 0.6667 0.67-6.67-8-20.67-5-8.3333-5.6667-9.6667-1-1.6666-1.8333-5.1666-0.83333-3.5-1.5-4.8334 0.66667 0 2 0.5t2.8333 1.1667 2.5 1.3333q1 0.6667 0.66666 1-1 2.3334 0.66667 5.8334t4 6.1666q2.3333 2.6667 5.6667 6.3334 3.3333 3.6666 4 4.3333 2 2 4.6667 6.5t0 4.5q3 0 6.6667 3.3333 3.6667 3.3334 5.6667 6.6667 1.6667 2.6667 2.6667 8.6667t1.6667 8q0.66667 2.3333 2.8333 4.5 2.17 2.16 4.17 3.16l5.3333 2.6667 4.3333 2.3333q1.6667 0.6667 6.1667 3.5 4.5 2.8334 7.1667 3.8334 3.3333 1.3333 5.3333 1.3333t4.8333-0.8333q2.8333-0.8334 4.5-1.1667 5-0.6667 9.6667 5t7 7q12 6.3333 18.333 3.6667-0.66667 0.3333 0.16666 2.5 0.83334 2.1666 2.6667 5.1666 1.8333 3 3 4.8334 1.1667 1.8333 1.8333 2.8333 1.6667 2 6 5t6 5q2-1.3333 2.3333-3-1 2.6667 2.3333 6.6667t6 3.3333q4.6667-1 4.6667-10.667-10.333 5-16.333-6 0-0.3333-0.83333-1.8333t-1.3333-2.8333q-0.5-1.3334-0.83334-2.8334-0.33333-1.5 0-2.5 0.33334-1 1.6667-1 3 0 3.3333-1.1666 0.33-1.16-0.67-4.16t-1.3333-4.3333q-0.34-2.67-3.67-6.67-3.3333-4-4-5-1.6667 3-5.3333 2.6667-3.6667-0.3334-5.3333-3 0 0.3333-0.5 1.8333t-0.5 2.1667q-4.3333 0-5-0.3334 0.33333-1 0.83333-5.8333t1.1667-7.5q0.33333-1.3333 1.8333-4t2.5-4.8333q1-2.1667 1.3333-4.1667 0.33333-2-1.5-3.1667-1.8333-1.1666-5.8333-0.8333-6.3333 0.3333-8.6667 6.6667-0.33334 1-1 3.5-0.67 2.5-1.67 3.83-1 1.3333-3 2.3333-2.3333 1-8 0.6667t-8-1.6667q-4.3333-2.6666-7.5-9.6666t-3.1667-12.333q0-3.3333 0.83334-8.8333 0.83333-5.5 1-8.3333 0.16666-2.8334-1.8333-8.1667 1-0.6667 3-3.1667t3.3333-3.5q0.66666-0.3333 1.5-0.5 0.83333-0.1666 1.5 0 0.66666 0.1667 1.3333-0.5 0.66667-0.6666 1-2-0.33333-0.3333-1.3333-1-1-1-1.3333-1 2.3333 1 9.5-0.5t9.1667 0.5q5 3.6667 7.3333-0.6666 0-0.3334-0.83333-3.1667t-0.16667-4.5q1.6667 9 9.6667 3 1 1 5.1667 1.6667 4.1667 0.6666 5.8333 1.6666 1 0.6667 2.3333 1.8334 1.3333 1.1666 1.8333 1.5 0.5 0.3333 1.6667-0.1667t2.8333-2.1667q3.3333 4.6667 4 8 3.66 13.34 6.33 14.67 2.3333 1 3.6667 0.6667 1.3333-0.3334 1.5-3.1667 0.16666-2.8333 0-4.6667-0.17-1.83-0.5-4.16l-0.34-2.67v-6l-0.33-2.67q-5-1-6.1667-4t0.5-6.1666q1.67-3.16 5-6.16 0.34-0.33 2.67-1.17 2.33-0.83 5.17-2.16 2.83-1.34 4.16-2.67 7-6.3333 5-11.667 2.3333 0 3.6667-3-0.33333 0-1.6667-1-1.3333-1-2.5-1.6666-1.1667-0.6667-1.5-0.6667 3-1.6667 0.66667-5.3333 1.6667-1 2.5-3.6667 0.83333-2.6667 2.5-3.3333 3 4 7 0.6666 2.3333-2.6666 0.33333-5.3333 1.6667-2.3333 6.8333-3.5 5.1667-1.1667 6.1667-3.1667 2.3333 0.6667 2.6667-0.6666 0.33333-1.3334 0.33333-4 0-2.6667 1-4 1.3333-1.6667 5-3 3.67-1.34 4.34-1.67l5.6667-3.6667q1-1.3333 0-1.3333 6 0.6667 10.333-3.6667 3.3333-3.6666-2-6.6666 1-2-1-3.1667t-5-1.8333q1-0.3334 3.8333-0.1667t3.5-0.5q5-3.3333-2.3333-5.3333-5.67-1.66-14.34 4.01zm-54.33 292.33q68.667-12 117-63-1-1-4.1667-1.5t-4.1667-1.1667q-6-2.3333-8-2.6666 0.33333-2.3334-0.83334-4.3334t-2.6667-3-4.1667-2.6666q-2.6667-1.6667-3.6667-2.3334-0.66666-0.6666-2.3333-2-1.66-1.33-2.32-1.83-0.67-0.5-2.5-1.5-1.8333-1-2.8333-0.6667-1 0.3334-3.3333 0.3334l-1 0.33q-1 0.3333-1.8333 0.8333-0.83334 0.5-1.8333 1-1 0.5-1.3333 1-0.33333 0.5 0 0.8334-7-5.67-12-7.34-1.67-0.33-3.67-1.83t-3.5-2.3333q-1.5-0.8334-3.3333-0.5-1.8333 0.3333-3.8333 2.3333-1.6667 1.6667-2 5-0.33334 3.3333-0.66667 4.3333-2.3333-1.6666 0-5.8333t0.66667-6.1667q-1-2-3.5-1.5t-4 1.5-3.8333 2.8334q-2.3333 1.8333-3 2.1666-0.66666 0.3334-2.8333 1.8334-2.1667 1.5-2.8333 2.5-1 1.3333-2 4-1 2.6666-1.6667 3.6666-0.67-1.33-3.83-2.16-3.17-0.84-3.17-1.84 0.67 3.34 1.33 11.67 0.67 8.33 1.67 12.67 2.3333 10.333-4 16-9 8.33-9.67 13.33-1.3333 7.3333 4 8.6667 0 2.3333-2.6667 6.8333t-2.3333 7.1667q0 2 0.66667 5.3333z"/>
</svg>
