<svg xmlns="http://www.w3.org/2000/svg"
     height="512"
     width="768"
     viewBox="0 0 768 512">
  <path d="m591.33 236 6 105.33q1.34 23-27.33 42.67t-78.33 31.17q-49.67 11.5-107.67 11.5t-107.67-11.5q-49.66-11.5-78.33-31.17t-27.33-42.67l6-105.33 191.33 60.33q7.3333 2.3334 16 2.3334t16-2.3334zm176.67-108q0 7.6667-7.3333 10.333l-373.34 117.34q-1.33 0.33-3.33 0.33t-3.3333-0.3333l-217.34-68.67q-14.33 11.33-23.66 37.17-9.3333 25.833-11.333 59.5 21 12 21 36.333 0 23-19.333 35.667l19.33 144.33q0.66667 4.6667-2.6667 8.3333-3 3.6667-8 3.6667h-64q-5 0-8-3.6667-3.327-3.66-2.66-8.33l19.333-144.33q-19.333-12.67-19.333-35.67 0-24.333 21.667-37 3.6667-69 32.667-110l-111-34.667q-7.33-2.66-7.33-10.33t7.3333-10.33l373.34-117.34q1.33-0.33 3.33-0.33t3.3333 0.3333l373.34 117.34q7.33 2.66 7.33 10.33z"/>
</svg>
