<svg xmlns="http://www.w3.org/2000/svg"
     height="512"
     width="683"
     viewBox="0 0 683 512">
  <path d="m682.67 469.33v42.667h-682.67v-512h42.667v469.33h640zm-42.67-416v145q0 7-6.5 9.8334-6.5 2.8333-11.833-2.5l-40.333-40.333-211 211q-3.3333 3.3334-7.6667 3.3334-4.3333 0-7.6667-3.3334l-77.667-77.667-138.67 138.67-64-64 195-195q3.33-3.33 7.66-3.33 4.34 0 7.67 3.33l77.67 77.67 154.66-154.67-40.33-40.33q-5.3333-5.3333-2.5-11.833 2.8333-6.5 9.8333-6.5h145q4.6667 0 7.6667 3t3 7.6666z"/>
</svg>
