<svg xmlns="http://www.w3.org/2000/svg"
     height="512"
     width="512"
     viewBox="0 0 512 512">
  <path d="m452 376q0-12.5-8.78-21.3l-65.3-65.3q-8.78-8.78-21.3-8.78-13.2 0-22.6 10 0.941 0.941 5.96 5.8t6.75 6.75q1.73 1.88 4.71 5.96t4.08 8 1.1 8.63q0 12.5-8.78 21.3-8.78 8.78-21.3 8.78-4.71 0-8.63-1.1t-8-4.08-5.96-4.71-6.75-6.75q-4.86-5.02-5.8-5.96-10.4 9.73-10.4 22.9 0 12.5 8.78 21.3l64.6 64.9q8.47 8.47 21.3 8.47 12.5 0 21.3-8.16l46.1-45.8q8.78-8.78 8.78-21zm-221-221q0-12.5-8.78-21.3l-64-65q-8.78-8.78-21.3-8.78-12.2 0-21.3 8.47l-46.1 45.8q-8.78 8.78-8.78 21 0 12.5 8.78 21.3l65.3 65.3q8.47 8.47 21.3 8.47 13.2 0 22.6-9.73-0.941-0.941-5.96-5.8t-6.75-6.75q-1.73-1.88-4.71-5.96t-4.08-8-1.1-8.63q0-12.5 8.78-21.3 8.78-8.78 21.3-8.78 4.71 0 8.63 1.1t8 4.08 5.96 4.71 6.75 6.75q4.86 5.02 5.8 5.96 10.4-9.73 10.4-22.9zm281 221q0 37.6-26.7 63.7l-46.1 45.8q-26 26-63 26-38 0-64-26.7l-64.6-64.9q-26-26-26-63.7 0-38.6 27.6-65.6l-27.6-27.6q-27 27.6-65.3 27.6-37.6 0-64-26.4l-65.6-64q-26.4-27-26.4-64 0-38.1 26.7-64.2l46.1-45.8q26-26 63.2-26 38 0 64 26.7l64.6 64.9q26 26 26 63.7 0 38.6-27.6 65.6l27.6 27.6q27-27.6 65.3-27.6 37.6 0 64 26.4l65.3 65.3q27 26 27 63z"/>
</svg>
