<svg xmlns="http://www.w3.org/2000/svg"
     height="512"
     width="512"
     viewBox="0 0 512 512">
  <path d="m162.9 232.73h186.18v-69.819q0-38.546-27.273-65.819-27.27-27.274-65.821-27.274-38.545 0-65.819 27.273-27.273 27.273-27.273 65.819v69.819zm302.55 34.909v209.45q0 14.546-10.182 24.727-10.19 10.18-24.73 10.18h-349.09q-14.545 0-24.727-10.182t-10.182-24.727v-209.45q0-14.546 10.182-24.727 10.182-10.182 24.727-10.182h11.636v-69.819q-0.003-66.909 47.994-114.91 48-48 114.91-48t114.91 48q48 48.001 48 114.91v69.819h11.636q14.545 0 24.727 10.182t10.182 24.727z"/>
</svg>
