<svg xmlns="http://www.w3.org/2000/svg"
     height="512"
     width="512"
     viewBox="0 0 512 512">
  <path d="m363.75 181.72 91.64-91.642-33.47-33.466-91.64 91.638zm139.81-91.642q0 8.4447-5.6298 14.074l-402.22 402.22q-5.633 5.63-14.078 5.63-8.444 0-14.074-5.63l-61.928-61.93q-5.6298-5.63-5.6298-14.07 0-8.45 5.6298-14.08l402.22-402.22q5.6298-5.6298 14.075-5.6298 8.4447 0 14.075 5.6298l61.928 61.928q5.6298 5.6299 5.6298 14.075zm-422.55-59.426 30.65 9.383-30.65 9.383-9.383 30.651-9.383-30.651-30.652-9.383 30.652-9.383 9.383-30.651zm109.47 50.668 61.302 18.766-61.302 18.766-18.766 61.302-18.766-61.302-61.302-18.766 61.302-18.766 18.766-61.302zm290.87 149.5 30.65 9.39-30.651 9.383-9.383 30.651-9.383-30.651-30.651-9.383 30.651-9.3831 9.383-30.651zm-200.17-200.17l30.651 9.383-30.651 9.383-9.383 30.651-9.39-30.651-30.65-9.383 30.65-9.383 9.36-30.65z"/>
</svg>
