<svg xmlns="http://www.w3.org/2000/svg"
     height="512"
     width="512"
     viewBox="0 0 512 512">
  <path d="m454 181-39-40 8-55.4c1.2-8.49-4.52-16.4-13-17.9l-57-9.7-25-49.5c-4-7.58-13-10.6-21-6.84l-51 24.5-50-24.5c-8-3.87-17-0.855-21 6.72l-26 49.6-56 9.5c-8.41 1.48-14.2 9.38-13 17.9l7.82 55.5-38.9 40.2c-5.94 6.16-5.94 15.9 0.0021 22l38.9 40.2-7.82 55.5c-1.2 8.47 4.54 16.4 13 17.9l44.2 7.75v172c0 5.51 2.85 10.6 7.53 13.5 2.54 1.58 5.43 2.37 8.33 2.37 2.43 0 4.86-0.555 7.08-1.68l85.4-42.8 85.4 42.8c4.9 2.46 10.8 2.2 15.4-0.697 4.67-2.9 7.53-8 7.53-13.5v-172l44.2-7.75c8.41-1.48 14.2-9.38 13-17.9l-7.84-55.5 38.9-40.2c5.94-6.16 5.94-15.9 0-22zm-189 254c-4.46-2.24-9.72-2.24-14.2 0l-69.5 34.9v-105l5.5 10.4c4.02 7.58 13.3 10.6 21 6.82l50.3-24.6 50.3 24.6c2.24 1.1 4.61 1.62 6.95 1.62 5.69 0 11.2-3.07 14-8.43l5.5-10.4v105l-69.5-34.9zm122-208c-3.4 3.51-4.99 8.43-4.31 13.3l6.76 48.1-47.6 8.36c-4.82 0.845-8.96 3.87-11.3 8.19l-23 43-43-21c-2.2-1.08-4.59-1.62-6.98-1.62s-4.78 0.538-6.98 1.62l-44.2 21.2-22.6-42.3c-2.28-4.32-6.45-7.35-11.3-8.19l-47.6-8.36 6.76-48.1c0.685-4.85-0.903-9.74-4.31-13.3l-34-34 34-35c3.4-3.51 4.99-8.43 4.31-13.3l-6.55-47.9 47.6-8.47c4.82-0.845 8.98-3.87 11.3-8.19l23-42.9 43 21.2c4.4 2.16 9.53 2.16 13.9 0l43-21.2 23 42.8c2.28 4.32 6.45 7.35 11.3 8.19l47.6 8.36-6.76 47.9c-0.685 4.85 0.903 9.74 4.31 13.3l33.6 34.7-33.6 34.7z"/>
  <path d="m258 83.7c-59.8 0-108 48.7-108 109 0 59.9 48.6 109 108 109 59.8 0 108-48.7 108-109 0-59.9-48.6-109-108-109zm0 185c-42.3 0-76.7-34.5-76.7-76.9 0-42.3 34.5-76.9 76.7-76.9 42.3 0 76.7 34.5 76.7 76.9 0 42.3-34.5 76.9-76.7 76.9z"/>
  <path d="m289 152-46.9 47-17.8-17.8c-6.19-6.2-16.2-6.18-22.4 0.0127-6.19 6.2-6.17 16.3 0.0148 22.4l29 29c3.09 3.09 7.14 4.64 11.2 4.64s8.12-1.55 11.2-4.66l58.1-58c6.19-6.2 6.19-16.3 0.002-22.4-6.19-6.2-16.2-6.2-22.4-0.002z"/>
</svg>
