<svg xmlns="http://www.w3.org/2000/svg"
     height="512"
     width="528"
     viewBox="0 0 528 512">
  <path d="m246 351-4.5 110-0.6 6.6-126-8.7q-10.8-0.9-20.1-9.45t-14.1-19.7q-3.3-8.1-4.35-16.5t1.2-19.5 3.6-16.5 6.45-19.2 5.7-15.9q23.4 3.6 153 8.4zm-116-176 54 114-44-28q-18.9 21.6-33.5 43.4t-21.8 37.5q-7.2 15.8-11.9 28.4-4.65 12.6-5.55 18.9l-1.2 7-57-108q-5.1-7-5.4-16t1.8-15l2.4-5.4q10.5-18.9 34.2-56.4l-42-26zm369 155-56.4 108q-3.6 8.7-11 14-7.35 5.25-13.1 6.15l-5.4 1.2q-21.3 2.1-65.7 3.6l2 49-69-110 63.3-109 2.1 51.9q51 4.8 84.9 1.5t51-9.9zm-235-277q-14.1 18.9-79.5 131l-94.9-57-5.7-3 67.6-107q6-9.3 18-13.5t24-3q7.2 0.6 14.6 3.6 7.35 3 12.6 6.3t12.5 9.9q7.2 6.6 10.8 10.4 3.6 3.75 10.8 11.9 7.2 8.1 9.6 10.5zm197 92.1 63.6 109q5.4 11.1 3.75 22.8t-8.25 22.2q-3.9 6-9.9 11.1t-11.4 8.4-14.6 6.6q-9.15 3.3-14.1 4.8t-15.5 4.2q-10.5 2.7-13.8 3.6-10.2-21.6-79.5-131l93.9-58.5zm-42.9-67.8 42.6-24.9-66 112-126-6 45.3-25.8q-10.2-26.7-22.5-49.8t-22.7-37.1-19.4-24q-9-10.1-14.1-14l-5.1-3.9 122 0.3q9.3-0.9 17.4 3.15t11.7 8.55l3.3 4.5q11.7 18.3 33.6 57z"/>
</svg>
