<svg xmlns="http://www.w3.org/2000/svg"
     height="512"
     width="512"
     viewBox="0 0 512 512">
  <path d="m503.67 309.33q0 1.6667-0.33334 2.3334-21.34 89.34-89.34 144.84t-159.33 55.5q-48.67 0-94.17-18.33-45.5-18.34-81.167-52.34l-43 43q-6.3333 6.3334-15 6.3334t-15-6.3334q-6.333-6.33-6.333-15v-149.33q0-8.6667 6.3333-15t15-6.3333h149.33q8.6667 0 15 6.3333 6.34 6.33 6.34 15 0 8.6667-6.3333 15l-45.67 45.67q23.667 22 53.667 34t62.333 12q44.667 0 83.333-21.667 38.667-21.667 62-59.667 3.6667-5.6666 17.667-39 2.6667-7.6666 10-7.6666h64q4.3333 0 7.5 3.1666 3.1667 3.1667 3.1667 7.5zm8.33-266.66v149.33q0 8.6667-6.3333 15t-15 6.3333h-149.33q-8.6667 0-15-6.3333-6.34-6.33-6.34-15 0-8.6667 6.3333-15l46-46q-49.33-45.667-116.33-45.667-44.667 0-83.333 21.667-38.667 21.667-62 59.667-3.6667 5.6666-17.667 39-2.6667 7.6666-10 7.6666h-66.333q-4.3333 0-7.5-3.1666-3.167-3.16-3.167-7.49v-2.3334q21.667-89.34 90-144.84 68.33-55.5 160-55.5 48.667 0 94.667 18.5t81.667 52.167l43.333-43q6.3333-6.3334 15-6.3334t15 6.3334q6.34 6.333 6.34 15z"/>
</svg>
