<svg xmlns="http://www.w3.org/2000/svg"
     height="512"
     width="512"
     viewBox="0 0 512 512">
  <path d="m249.43 211.32q0 23.702-18.136 40.692-18.136 16.991-43.555 16.991t-43.555-16.991-18.136-40.692q0-23.987 18.136-40.835t43.555-16.848 43.555 16.848 18.136 40.835zm143.37 0q0 23.702-17.993 40.692-17.993 16.991-43.698 16.991-25.419 0-43.555-16.991t-18.136-40.692q0-23.987 18.136-40.835t43.555-16.848q25.704 0 43.698 16.848 17.993 16.848 17.993 40.835zm64.261 51.401v-190.47q0-24.844-9.1394-35.267t-31.702-10.423h-317.59q-23.705 0-32.131 9.7091-8.4253 9.709-8.4253 35.981v192.18q12.281 6.5679 25.276 11.422 12.995 4.8546 23.134 7.9957 10.139 3.1412 23.134 5.2829t20.278 3.1412q7.2829 0.9995 19.992 1.1422 12.709 0.1428 16.708 0.1428 3.9985 0 16.137-0.5711t12.709-0.5711q19.421-0.2856 27.132 7.7101 1.7136 1.7134 2.856 2.5701 7.4257 7.139 17.422 14.564 1.9992-25.986 33.701-24.844 1.428 0 10.425 0.4283 8.9966 0.4284 12.281 0.5711 3.2845 0.1428 12.995 0.2856 9.7106 0.1428 15.137-0.2856 5.4265-0.4283 15.565-1.285 10.139-0.8567 17.422-2.4273 7.2829-1.5705 17.708-3.855t19.136-5.5685q8.711-3.2839 19.278-7.7101t20.564-9.8519zm46.554-1.4278q-34.558 42.549-106.25 71.961 23.991 81.385-6.5689 132.79-18.85 32.268-52.266 42.263-29.703 9.1379-51.98-4.2834-24.562-14.564-23.42-46.832l-0.28561-93.093v-0.2856q-2.2848-0.5711-6.9973-1.7133-4.7125-1.1423-6.7117-1.4279l-0.28561 96.52q1.1424 32.554-23.705 46.832-22.563 13.421-52.266 4.2834-33.416-10.28-51.98-42.834-29.989-51.401-6.2833-132.21-71.687-29.413-106.25-71.961-7.1401-10.566-1.1424-17.99 5.9977-7.4246 17.136 0.2855 0.85682 0.5712 3.1417 1.999 2.2848 1.4278 3.1417 2.2845v-198.18q0-20.56 13.423-35.124 13.452-14.576 32.587-14.576h359.01q19.136 0 32.559 14.564t13.423 35.124v198.18l5.9977-4.2835q11.139-7.7101 17.136-0.2855 5.9977 7.4246-1.1424 17.99z"/>
</svg>
