<svg xmlns="http://www.w3.org/2000/svg"
     height="512"
     width="627"
     viewBox="0 0 627 512">
  <path d="m255.92 473.6q0 1.6 0.39987 8t0.19994 10.6q-0.19994 4.2-1.1996 9.4-0.99968 5.2-3.9987 7.8t-8.1974 2.6h-127.96q-47.582 0-81.371-33.8t-33.789-81.4v-281.6q0-47.6 33.789-81.4t81.371-33.8h127.96q5.1983 0 8.9971 3.8t3.7988 9q0 1.6 0.39987 8t0.19994 10.6q-0.19994 4.2-1.1996 9.4-0.99968 5.2-3.9987 7.8t-8.1974 2.6h-127.96q-26.388 0-45.182 18.8t-18.794 45.2v281.6q0 26.4 18.794 45.2t45.186 18.8h124.76l4.5985 0.4 4.5985 1.2 3.199 2.2 2.7991 3.6 0.79975 5.4zm371.08-217.6q0 10.4-7.5976 18l-217.53 217.6q-7.5976 7.6-17.994 7.6-10.397 0-17.994-7.6-7.5976-7.6-7.5976-18v-115.2h-179.14q-10.397 0-17.994-7.6-7.5976-7.6-7.5976-18v-153.6q0-10.4 7.5976-18t17.994-7.6h179.14v-115.2q0-10.4 7.5976-18t17.994-7.6q10.397 0 17.994 7.6l217.53 217.6q7.6 7.6 7.6 18z"/>
</svg>
