<svg xmlns="http://www.w3.org/2000/svg"
     height="512"
     width="614"
     viewBox="0 0 614 512">
  <path d="m473.29 256q0 10.4-7.5951 18l-217.45 217.6q-7.595 7.6-17.988 7.6t-17.988-7.6-7.595-18v-115.2h-179.08q-10.4 0-17.995-7.6t-7.595-18v-153.6q0-10.4 7.5951-18t17.988-7.6h179.08v-115.2q0-10.4 7.595-18t17.988-7.6 17.988 7.6l217.47 217.6q7.5951 7.6 7.5951 18zm140.71-140.8v281.6q0 47.6-33.778 81.4t-81.347 33.8h-127.92q-5.1966 0-8.9941-3.8t-3.7975-9q0-1.6-0.39974-8t-0.19987-10.6 1.1992-9.4q0.99935-5.2 3.9974-7.8t8.1947-2.6h127.92q26.383 0 45.171-18.8t18.788-45.2v-281.6q0-26.4-18.788-45.2-18.79-18.8-45.17-18.8h-124.72l-4.597-0.4-4.597-1.2-3.1979-2.2-2.7982-3.6-0.79948-5.4q0-1.6-0.39974-8t-0.19987-10.6 1.1992-9.4q0.99935-5.2 3.9974-7.8 3-2.6 8.2-2.6h127.92q47.56 0 81.34 33.8t33.78 81.4z"/>
</svg>
