<svg xmlns="http://www.w3.org/2000/svg"
     height="512"
     width="652"
     viewBox="0 0 652 512">
  <path d="m372.57 465.45h232.86v-46.545h-232.86v46.545zm-139.71-186.18h372.57v-46.545h-372.57v46.545zm232.86-186.18h139.71v-46.545h-139.71v46.545zm186.28 302.55v93.091q0 9.4545-6.913 16.364-6.92 6.91-16.38 6.91h-605.42q-9.464 0-16.377-6.91t-6.913-16.36v-93.091q0-9.4546 6.9129-16.364 6.9129-6.9091 16.373-6.9091h605.43q9.4598 0 16.373 6.9091 6.91 6.9 6.91 16.36zm0-186.18v93.091q0 9.4545-6.913 16.364-6.9129 6.9091-16.373 6.9091h-605.43q-9.4598 0-16.373-6.9091-6.907-6.91-6.907-16.36v-93.091q0-9.46 6.9129-16.37 6.9131-6.91 16.373-6.91h605.43q9.4598 0 16.373 6.9091 6.91 6.91 6.91 16.36zm0-186.18v93.091q0 9.4546-6.913 16.364-6.9129 6.9091-16.373 6.9091h-605.43q-9.4598 0-16.373-6.9091-6.907-6.91-6.907-16.37v-93.087q0-9.455 6.9129-16.364 6.9131-6.909 16.373-6.909h605.42q9.4598 0 16.373 6.9091 6.92 6.9089 6.92 16.364z"/>
</svg>
