<svg xmlns="http://www.w3.org/2000/svg"
     height="512"
     width="548"
     viewBox="0 0 548 512">
  <path d="m274 0 274 110v36.6h-36.5q0 7.43-5.85 12.9-5.85 5.43-13.8 5.43h-436q-7.99 0-13.8-5.43-5.85-5.43-5.85-12.9l-36.4-1v-36zm-201 183h73.1v219h36.5v-219h73.1v219h36.5v-219h73.1v219h36.5v-219h73.1v219h16.8q7.99 0 13.8 5.43 5.85 5.43 5.85 12.9v18.3h-475v-18.3q0-7.43 5.85-12.9 5.85-5.43 13.8-5.43h16.8v-219zm455 274q7.99 0 13.8 5.43 6 6 6 13v37h-548v-37q0-7 5.85-12 5.85-5.43 13.8-5.43h509z"/>
</svg>
