<svg xmlns="http://www.w3.org/2000/svg"
     height="512"
     width="682"
     viewBox="0 0 682 512">
    <path d="m234.44 256q-52.948 0-90.412-37.5-37.463-37.5-37.463-90.501 0-53 37.463-90.501 37.48-37.5 90.41-37.5 52.948 0 90.412 37.5 37.463 37.5 37.463 90.501 0 53-37.463 90.501-37.463 37.5-90.412 37.5zm319.69 42.667h117.22q4.3291 0 7.4926 3.1666 3.16 3.16 3.16 7.5v64q0 4.3334-3.1636 7.5-3.1669 3.16-7.4926 3.16h-117.22v117.33q0 4.3334-3.1636 7.5-3.1669 3.17-7.4926 3.17h-63.936q-4.3291 0-7.4926-3.1667-3.1636-3.1666-3.1636-7.5v-117.33h-117.22q-4.3291 0-7.4926-3.1667-3.1636-3.1666-3.1636-7.5v-64q0-4.3333 3.1636-7.5 3.1636-3.1666 7.4926-3.1666h117.22v-117.33q0-4.3333 3.1636-7.5 3.1636-3.1666 7.4926-3.1666h63.936q4.3291 0 7.4926 3.1666 3.1636 3.1667 3.1636 7.5v117.33zm-245.09 74.667q0 17.333 12.655 30 12.648 12.66 29.961 12.66h85.25v79.333q-22.63 16.67-56.94 16.67h-291.06q-40.291 0-64.601-23-24.309-23-24.309-63.33 0-17.67 1.1656-34.5 1.1656-16.833 4.6621-36.333 3.4966-19.5 8.8247-36.167 5.3278-16.67 14.319-32.5 8.9912-15.833 20.647-27 11.655-11.17 28.472-17.84 16.817-6.66 37.127-6.66 6.327 0 12.987 5.6666 26.307 20.333 51.45 30.5 25.145 10.16 54.785 10.16 29.638 0 54.778-10.167 25.142-10.167 51.45-30.5 6.6601-5.6666 12.987-5.6666 43.957 0 72.261 32h-74.259q-17.316 0-29.971 12.667t-12.655 30v64z"/>
</svg>
