<svg xmlns="http://www.w3.org/2000/svg"
     height="512"
     width="548"
     viewBox="0 0 548 512">
  <path d="m169.25 256q-46.238 1.4286-75.635 36.57h-38.246q-23.406 0-39.389-11.57-15.98-11.57-15.98-33.86 0-100.85 35.392-100.85 1.7125 0 12.416 5.9999 10.703 5.9999 27.828 12.143 17.125 6.1427 33.964 6.1427 19.123 0 37.96-6.5713-1.4271 10.571-1.4271 18.857 0 39.713 23.119 73.142zm305.68 182q0 34.285-20.835 54.142-20.838 19.86-55.372 19.86h-249.45q-34.534 0-55.372-19.86-20.828-19.85-20.828-54.14 0-15.143 0.99896-29.57 0.99896-14.429 3.9958-31.142 2.9969-16.714 7.5635-30.999 4.5672-14.29 12.273-27.86 7.7062-13.572 17.695-23.143 9.9896-9.5712 24.403-15.286 14.414-5.7142 31.824-5.7142 2.8541 0 12.273 6.1428 9.4188 6.1427 20.835 13.714 11.417 7.5713 30.539 13.714 19.123 6.1428 38.531 6.1428 19.409 0 38.531-6.1428 19.123-6.1427 30.539-13.714 11.417-7.5714 20.835-13.714 9.4188-6.1428 12.273-6.1428 17.411 0 31.824 5.7142 14.414 5.7142 24.403 15.286 9.9896 9.5712 17.696 23.143 7.7062 13.571 12.273 27.857 4.5666 14.286 7.5635 30.999 2.9969 16.714 3.9958 31.142 0.99895 14.428 0.99895 29.57zm-292.26-364.86q0 30.285-21.407 51.713-21.408 21.43-51.666 21.43-30.249 0-51.656-21.43t-21.407-51.716q0-30.285 21.407-51.713 21.407-21.429 51.66-21.429 30.258 0 51.666 21.429 21.4 21.428 21.4 51.713zm200.93 109.72q0 45.428-32.109 77.571-32.109 32.142-77.49 32.142-45.382 0-77.49-32.142-32.109-32.142-32.109-77.571 0-45.427 32.109-77.57 32.109-32.142 77.49-32.142 45.382 0 77.49 32.142 32.106 32.139 32.106 77.569zm164.4 64.285q0 22.286-15.983 33.856-15.983 11.571-39.388 11.571h-38.246q-29.389-35.149-75.631-36.579 23.119-33.428 23.119-73.142 0-8.2856-1.4271-18.857 18.837 6.5713 37.96 6.5713 16.839 0 33.964-6.1427 17.125-6.1428 27.828-12.143 10.703-5.9999 12.416-5.9999 35.392 0 35.392 100.86zm-36.53-174q0 30.285-21.407 51.713-21.407 21.429-51.66 21.429-30.254 0-51.66-21.429-21.407-21.428-21.407-51.713t21.407-51.713q21.408-21.429 51.666-21.429 30.248 0 51.656 21.429 21.408 21.428 21.408 51.713z"/>
</svg>
