<svg xmlns="http://www.w3.org/2000/svg"
     height="512"
     width="512"
     viewBox="0 0 512 512">
  <path d="m113 419q0-8.1-5.93-14-5.93-5.92-14-5.92-8.11 0-14 5.92-5.93 5.92-5.93 14 0 8.1 5.93 14 5.93 5.92 14 5.92 8.11 0 14-5.92 5.93-5.92 5.93-14zm201-131-213 212q-11.1 12-27.7 12-16.2 0-28.4-12l-33-33q-11.9-11-11.9-28t11.9-29l212-212q12.2 30.5 35.7 54.1 23.6 23.5 54.1 35.7zm198-136q0 12.2-7.18 33-14.7 41.8-51.3 67.8-36.7 26-80.7 26-57.7 0-98.7-41t-41-98.6q0-57.7 41-98.6 41-41 99-41 18.1 0 37.9 5.14t33.5 14.5q4.99 3.43 4.99 8.73t-4.99 8.73l-91.4 52.7v69.8l60.2 33.3q1.56-0.935 24.6-15.1 23.1-14.2 42.3-25.2 19.2-11.1 22-11.1 4.68 0 7.33 3.12 3 4 3 8z"/>
</svg>
